Duration: 01:44:01.08, start: 0.000000, bitrate: 940 kb/s
Stream #0.0: Video: mpeg4, yuv420p, 608x336 [PAR 1:1 DAR 38:21], 25.00 tb(r)
Stream #0.1: Audio: mp3, 48000 Hz, stereo, s16, 32 kb/s